<svg role="img" aria-labelledby="asb-seal-title" xmlns="http://www.w3.org/2000/svg" width="802" height="800" viewBox="0 0 802 800" version="1.1">
	<title id="asb-seal-title">As-Sabiquun Association Consultancy</title>
	<path d="M 333.514 1.069 C 324.779 2.528, 324.302 2.788, 322.612 7.011 C 321.726 9.227, 321 11.931, 321 13.020 C 321 14.685, 321.676 14.998, 325.250 14.985 C 327.587 14.977, 330.596 14.415, 331.935 13.735 C 333.274 13.056, 335.618 10.025, 337.142 7 C 340.078 1.175, 340.460 -0.072, 339.250 0.118 C 338.837 0.182, 336.256 0.610, 333.514 1.069 M 389.488 15.364 C 388.841 17.399, 385.993 70.237, 385.996 80.143 C 385.999 88.075, 386.285 89.895, 387.607 90.403 C 388.491 90.742, 397.153 91.306, 406.857 91.656 C 421.469 92.183, 425.447 92.017, 430.015 90.687 C 433.531 89.663, 436.686 87.887, 438.722 85.787 C 444.151 80.186, 446.493 70.102, 443.942 63.315 C 443.360 61.767, 441.059 58.631, 438.828 56.346 C 434.907 52.330, 434.841 52.155, 436.855 51.078 C 438 50.465, 440.076 48.019, 441.469 45.644 C 443.262 42.583, 443.994 39.893, 443.978 36.412 C 443.953 30.846, 441.409 24.553, 437.868 21.298 C 433.121 16.934, 428.368 15.798, 413.012 15.359 C 405.030 15.131, 396.554 14.783, 394.175 14.586 C 391.533 14.368, 389.709 14.671, 389.488 15.364 M 329.582 20.562 C 325.777 21.318, 322.351 22.288, 321.967 22.718 C 321.019 23.782, 314.755 53.690, 311.122 74.500 C 307.258 96.632, 306.845 99.791, 307.748 100.319 C 308.162 100.560, 311.522 100.315, 315.216 99.774 C 320.012 99.071, 322.068 98.319, 322.409 97.145 C 322.671 96.240, 323.419 92.696, 324.070 89.268 C 324.721 85.840, 325.759 82.358, 326.377 81.530 C 327.106 80.552, 331.440 79.452, 338.729 78.397 C 344.905 77.502, 350.581 77.009, 351.343 77.301 C 352.104 77.594, 354.627 81.294, 356.949 85.524 C 360.839 92.613, 361.379 93.174, 363.835 92.684 C 365.301 92.392, 369.313 91.835, 372.750 91.447 C 376.188 91.059, 379 90.377, 379 89.930 C 379 88.611, 337.876 18.991, 337.157 19.094 C 336.796 19.146, 333.387 19.806, 329.582 20.562 M 466.028 24.910 C 461.754 40.849, 453.707 86.923, 454.188 92.699 L 454.500 96.435 461.343 97.792 C 465.106 98.537, 468.416 98.918, 468.697 98.637 C 469.182 98.152, 482.991 24.669, 482.658 24.347 C 482.571 24.263, 479.010 23.548, 474.746 22.757 L 466.991 21.319 466.028 24.910 M 405 36.872 L 405 45 414.345 45 C 422.252 45, 423.954 44.708, 425.408 43.102 C 426.610 41.773, 427.031 39.903, 426.812 36.860 C 426.546 33.159, 426.055 32.302, 423.500 31.080 C 421.850 30.291, 417.012 29.442, 412.750 29.194 L 405 28.743 405 36.872 M 515.624 36.637 C 512.942 37.460, 509.117 39.168, 507.124 40.431 C 502.568 43.319, 494.756 51.638, 492.497 56.006 C 489.398 61.999, 486.990 70.259, 486.357 77.070 C 485.861 82.405, 486.184 85.247, 487.943 91.040 C 489.822 97.224, 491.003 99.163, 495.834 103.994 C 499.841 108.001, 503.210 110.309, 507.268 111.827 C 510.432 113.011, 514.929 114.238, 517.260 114.553 C 525.419 115.656, 526.001 115.971, 529.065 120.951 L 532.080 125.852 536.790 123.809 C 539.381 122.685, 541.846 121.450, 542.269 121.063 C 542.693 120.677, 542.351 118.413, 541.511 116.031 C 540.027 111.826, 540.049 111.656, 542.241 110.191 C 543.484 109.361, 546.804 106.348, 549.620 103.496 C 555.572 97.468, 558.279 91.177, 560.528 78.148 C 561.650 71.647, 561.781 68.120, 561.047 64.247 C 558.993 53.420, 552.273 44.516, 542.458 39.619 C 533.045 34.923, 524.352 33.956, 515.624 36.637 M 251.079 39.643 C 242.280 42.723, 235.333 48.564, 232.553 55.218 C 228.008 66.097, 234.226 80.106, 244.869 82.967 C 247.272 83.613, 254.472 84.073, 260.869 83.989 C 278.204 83.763, 278.825 83.825, 281 86 C 283.445 88.445, 283.622 93.667, 281.369 96.883 C 279.417 99.670, 274.232 102, 269.982 102 C 266.423 102, 262.281 100.073, 259.691 97.211 C 257.892 95.224, 257.863 95.226, 250.448 97.859 C 246.357 99.311, 243.008 101.014, 243.005 101.642 C 243.002 102.270, 245.030 105.042, 247.512 107.802 C 250.604 111.241, 253.492 113.320, 256.690 114.410 C 262.729 116.468, 272.341 116.438, 278.572 114.343 C 285.748 111.930, 293.546 106.643, 296.490 102.195 C 297.956 99.980, 299.310 96.175, 299.648 93.325 C 300.846 83.211, 295.046 71.588, 287.156 68.292 C 284.700 67.266, 279.404 66.899, 267.724 66.945 C 254.108 67, 251.389 66.757, 249.834 65.350 C 247.977 63.669, 247.486 60.503, 248.623 57.539 C 249.464 55.349, 256.234 52, 259.821 52 C 261.416 52, 264.342 53.100, 266.322 54.444 L 269.924 56.888 277.451 54.357 C 284.385 52.026, 284.893 51.669, 283.906 49.825 C 281.546 45.415, 275.648 39.997, 272.152 39.025 C 266.830 37.547, 256.174 37.860, 251.079 39.643 M 331.117 48.250 C 330.519 51.688, 329.737 56.638, 329.379 59.250 L 328.728 64 333.114 63.942 C 335.526 63.911, 339.143 63.573, 341.152 63.192 L 344.803 62.500 339.161 52.250 C 336.058 46.612, 333.224 42, 332.862 42 C 332.501 42, 331.716 44.813, 331.117 48.250 M 519.459 51.880 C 511.243 55.612, 504.980 66.625, 504.205 78.705 C 503.858 84.108, 504.183 87.190, 505.446 90.497 C 506.398 92.991, 508.471 95.911, 510.125 97.089 C 511.758 98.252, 514.872 99.441, 517.046 99.733 L 520.999 100.263 518.856 95.108 C 517.678 92.273, 516.891 89.819, 517.107 89.654 C 517.323 89.490, 519.628 88.137, 522.229 86.648 L 526.959 83.940 529.959 88.720 C 531.609 91.349, 533.160 93.950, 533.406 94.500 C 534.032 95.903, 537.401 91.501, 540.677 85 C 542.955 80.479, 543.512 77.899, 543.804 70.500 C 544.125 62.398, 543.927 61.151, 541.822 58 C 539.027 53.816, 531.940 49.992, 527.038 50.022 C 525.092 50.034, 521.681 50.870, 519.459 51.880 M 403 67.893 C 403 75.080, 403.303 76.902, 404.582 77.393 C 405.452 77.727, 409.891 78, 414.447 78 C 421.313 78, 423.181 77.645, 425.365 75.927 C 427.465 74.275, 428 73.001, 428 69.650 C 428 67.337, 427.326 64.482, 426.502 63.306 C 424.719 60.761, 417.542 59, 408.951 59 L 403 59 403 67.893 M 589.779 65.222 C 584.329 73.565, 568.446 100.150, 565.839 105.290 C 563.457 109.989, 562.576 113.245, 562.219 118.673 C 561.827 124.630, 562.116 126.608, 563.923 130.341 C 565.120 132.814, 568.134 136.712, 570.620 139.004 C 573.106 141.296, 578.083 144.548, 581.679 146.231 C 586.869 148.659, 589.588 149.297, 594.859 149.323 C 600.114 149.350, 602.572 148.806, 606.638 146.718 C 609.464 145.267, 613.289 142.310, 615.138 140.146 C 618.522 136.187, 642 97.659, 642 96.064 C 642 95.027, 633.355 89.470, 630.338 88.567 C 628.435 87.998, 627.364 89.275, 621.408 99.210 C 609.956 118.315, 602.440 129.509, 599.522 131.804 C 592.521 137.311, 580.302 131.761, 578.391 122.206 C 578.004 120.271, 578.527 117.597, 579.899 114.496 C 581.054 111.885, 586.440 102.493, 591.868 93.624 C 597.296 84.756, 602.463 76.076, 603.351 74.334 L 604.964 71.169 600.232 68.419 C 597.629 66.907, 594.547 65.056, 593.383 64.307 C 591.492 63.090, 591.108 63.188, 589.779 65.222 M 619.678 68.199 L 616.190 72.398 626.008 79.199 C 631.407 82.939, 636.051 86, 636.327 86 C 637.301 86, 642.064 76.609, 641.645 75.516 C 641.069 74.015, 626.149 64, 624.489 64 C 623.761 64, 621.596 65.889, 619.678 68.199 M 155.329 93.934 C 140.094 99.419, 129.879 113.408, 132.904 124.645 C 134.558 130.785, 139.302 137.441, 143.416 139.393 C 150.255 142.639, 152.966 142.486, 168.920 137.957 C 181.698 134.329, 184.385 133.854, 186.550 134.841 C 187.955 135.481, 189.762 137.578, 190.565 139.502 C 191.845 142.564, 191.846 143.434, 190.574 146.478 C 189.774 148.391, 187.631 150.864, 185.810 151.974 C 182.040 154.273, 177.965 154.518, 171.641 152.826 C 168.218 151.911, 166.591 151.927, 164.244 152.899 C 162.589 153.584, 159.973 155.463, 158.430 157.073 L 155.626 160 158.483 162.982 C 160.054 164.622, 163.284 166.707, 165.660 167.614 C 171.882 169.990, 182.898 169.128, 189.540 165.746 C 195.265 162.830, 201.874 156.128, 204.929 150.139 C 207.850 144.413, 207.714 136.333, 204.593 130.217 C 203.270 127.623, 200.907 124.286, 199.343 122.803 C 195.629 119.280, 190.038 117, 185.112 117 C 182.938 117, 175.857 118.800, 169.377 121 C 162.896 123.200, 156.414 125, 154.971 125 C 152.044 125, 148 121.308, 148 118.636 C 148 115.882, 150.674 111.444, 153.414 109.648 C 156.254 107.788, 161.570 107.506, 165.519 109.007 C 167.510 109.764, 168.954 109.631, 171.334 108.469 C 173.075 107.619, 175.837 105.832, 177.471 104.498 L 180.443 102.072 177.471 98.910 C 173.909 95.119, 167.627 92.039, 163.500 92.058 C 161.850 92.066, 158.173 92.910, 155.329 93.934 M 215.319 98.875 C 208.620 102.519, 202.852 105.793, 202.502 106.151 C 201.764 106.905, 206.445 116.539, 208.024 117.515 C 208.608 117.876, 214.129 115.392, 220.293 111.997 C 226.457 108.601, 231.903 105.436, 232.396 104.965 C 232.919 104.464, 232.356 101.899, 231.043 98.804 C 229.805 95.887, 228.502 93.219, 228.146 92.875 C 227.791 92.531, 222.019 95.231, 215.319 98.875 M 643.390 130.222 C 633 141.344, 621.612 153.516, 618.083 157.271 L 611.665 164.098 617.048 169.549 C 620.009 172.547, 622.749 175, 623.137 175 C 623.525 175, 630.957 167.155, 639.654 157.566 C 648.350 147.977, 655.648 140.315, 655.872 140.539 C 656.096 140.763, 653.865 153.104, 650.915 167.964 L 645.551 194.982 651 200.500 C 653.997 203.534, 656.713 205.901, 657.037 205.759 C 658.226 205.236, 709 151.688, 709 150.957 C 709 150.015, 698.115 140, 697.091 140 C 696.680 140, 689.291 147.895, 680.672 157.545 C 672.052 167.195, 665 174.433, 665 173.631 C 665 172.828, 667.025 161.495, 669.500 148.445 C 671.975 135.395, 674 123.518, 674 122.050 C 674 120.062, 672.615 118.186, 668.567 114.691 C 665.578 112.111, 662.941 110, 662.707 110 C 662.472 110, 653.779 119.100, 643.390 130.222 M 375.500 118.048 C 359.690 119.490, 339.615 122.891, 325.500 126.518 C 283.476 137.316, 247.873 155.194, 214 182.507 C 200.213 193.624, 177.235 216.872, 167.058 230 C 157.625 242.168, 144.539 261.984, 138.330 273.500 C 126.662 295.145, 117.749 318.128, 112.068 341.225 C 105.318 368.664, 102.304 401.321, 104.024 428.380 C 105.782 456.047, 109.706 476.669, 118.223 503 C 132.738 547.879, 155.729 585.568, 188.872 618.815 C 226.329 656.389, 266.276 680.624, 315.500 695.639 C 329.896 700.030, 352.156 704.530, 369 706.455 C 384.487 708.225, 413.980 708.478, 429.144 706.971 C 444.805 705.415, 460.869 702.401, 477.448 697.909 C 495.985 692.885, 510.891 687.458, 526.635 680.001 C 547.218 670.250, 569.406 656.407, 586.684 642.535 C 598.439 633.098, 614.719 617.301, 625.191 605.171 C 643.837 583.573, 657.133 563.539, 667.973 540.711 C 675.564 524.724, 680.138 512.905, 684.998 496.723 C 689.927 480.308, 693.404 463.388, 695.436 445.921 C 697.479 428.359, 697.479 395.655, 695.435 378 C 690.507 335.438, 675.773 292.959, 653.466 257 C 645.620 244.352, 632.345 226.872, 620.859 214.062 C 603.220 194.389, 579.048 174.255, 556.316 160.301 C 541.975 151.497, 518.562 140.264, 502.500 134.482 C 485.231 128.264, 462.899 122.689, 444.500 120.002 C 433.667 118.421, 423.388 117.718, 407.500 117.474 C 395.400 117.288, 381 117.546, 375.500 118.048 M 366.369 133.508 C 343.053 136.452, 318.500 142.626, 298.005 150.698 C 272.740 160.649, 244.078 177.119, 224.342 193.026 C 204.351 209.140, 189.083 225.021, 173.339 246.080 C 158.081 266.488, 144.034 292.464, 135.126 316.746 C 129.782 331.309, 124.575 351.282, 122.024 367 C 120.909 373.875, 119.513 386.841, 118.923 395.813 C 117.051 424.278, 120.564 457.779, 128.395 486.140 C 133.342 504.058, 137.997 516.148, 147.014 534.500 C 159.055 559.009, 170.327 575.945, 188.805 597.291 C 210.602 622.472, 240.682 645.873, 271.661 661.751 C 296.423 674.442, 317.732 682.125, 342.923 687.443 C 361.862 691.442, 378.395 693.066, 400.500 693.099 C 429.499 693.143, 451.819 690.082, 478.920 682.345 C 493.479 678.188, 513.415 670.348, 527.500 663.239 C 565.676 643.971, 600.123 615.447, 625.606 582 C 638.587 564.961, 652.031 541.853, 660.511 522 C 669.039 502.034, 675.348 480.137, 678.977 457.903 C 680.090 451.081, 681.513 438.169, 682.138 429.209 C 682.986 417.070, 682.988 408.501, 682.146 395.585 C 680.812 375.125, 677.440 354.370, 672.605 336.860 C 667.926 319.915, 663.155 307.297, 655.075 290.500 C 641.836 262.979, 625.947 240.234, 604.560 218.185 C 584.569 197.575, 567.072 183.859, 542.434 169.481 C 512.612 152.077, 478.783 140.276, 442 134.442 C 427.438 132.133, 381.731 131.569, 366.369 133.508 M 91.145 150.096 C 87.242 153.754, 85 156.653, 85 158.044 C 85 160.391, 116.211 225.628, 118.371 227.795 C 119.426 228.854, 120.693 228.240, 125.331 224.422 C 128.449 221.855, 131 219.303, 131 218.751 C 131 218.198, 129.205 214.495, 127.011 210.520 L 123.022 203.294 132.333 193.439 L 141.645 183.583 150.423 187.495 L 159.202 191.406 165.295 185.102 C 170.833 179.372, 171.218 178.702, 169.518 177.750 C 168.489 177.174, 151.817 169.421, 132.469 160.520 L 97.291 144.338 91.145 150.096 M 103.167 165.259 C 103.350 166.005, 106.176 171.400, 109.446 177.247 L 115.392 187.878 118.964 184.689 C 120.928 182.935, 123.562 180.277, 124.817 178.782 L 127.098 176.065 114.966 169.983 C 108.044 166.513, 102.977 164.484, 103.167 165.259 M 347.571 210.720 L 342.642 216.060 347.029 220.530 C 349.442 222.988, 352.168 225, 353.086 225 C 354.004 225, 355.333 224.304, 356.039 223.453 C 356.745 222.603, 358.533 221.045, 360.013 219.991 L 362.703 218.075 367.908 221.719 L 373.113 225.363 378.282 220.194 L 383.450 215.026 378.513 210.013 C 375.797 207.256, 373.125 205, 372.575 205 C 372.026 205, 369.668 206.872, 367.337 209.160 L 363.097 213.321 358.799 209.840 C 356.434 207.925, 354.050 206.139, 353.500 205.870 C 352.950 205.601, 350.282 207.784, 347.571 210.720 M 415.162 218.263 C 412.226 219.929, 409.364 222.302, 408.802 223.536 C 407.423 226.563, 411.385 274.006, 413.523 280.066 C 415.271 285.019, 418.169 288.498, 422.368 290.682 C 426.456 292.808, 443.064 294.218, 448.822 292.928 C 451.371 292.357, 454.957 290.745, 456.791 289.346 C 459.769 287.075, 460.305 286.961, 461.812 288.281 C 464.879 290.967, 469.850 293, 473.349 293 C 475.245 293, 479.354 291.655, 482.479 290.011 L 488.162 287.022 491.331 289.433 C 493.074 290.759, 495.740 292.154, 497.257 292.532 C 501.327 293.548, 506.540 292.258, 509.947 289.391 L 512.953 286.862 516.645 289.681 C 520.056 292.285, 521.133 292.526, 530.767 292.844 C 536.633 293.037, 543.233 292.678, 545.849 292.023 C 548.407 291.382, 551.521 289.903, 552.768 288.737 C 557.028 284.756, 558.073 278.281, 557.925 256.792 C 557.797 238.159, 557.904 236.937, 559.895 234.407 C 561.053 232.935, 562 230.869, 562 229.817 C 562 228.765, 560.371 225.338, 558.379 222.202 C 556.387 219.066, 554.603 216.328, 554.413 216.117 C 554.223 215.906, 551.784 217.475, 548.993 219.603 C 546.203 221.731, 543.650 224.545, 543.321 225.857 C 542.992 227.168, 543.252 231.900, 543.900 236.371 C 544.547 240.842, 545.351 250.619, 545.686 258.099 L 546.294 271.697 542.028 272.380 C 539.681 272.755, 534.372 272.755, 530.229 272.379 C 520.317 271.481, 519 270.205, 519 261.500 C 519 257.328, 518.595 255, 517.868 255 C 515.917 255, 510.025 259.085, 508.874 261.236 C 508.268 262.367, 507.262 265.364, 506.636 267.896 C 505.554 272.283, 505.319 272.515, 501.652 272.816 C 498.998 273.034, 497.182 272.570, 495.800 271.319 C 494.174 269.847, 493.906 268.706, 494.377 265.266 C 494.906 261.409, 494.743 260.974, 492.572 260.429 C 491.260 260.099, 489.215 260.350, 488.027 260.985 C 486.840 261.621, 485.028 264.102, 484 266.500 C 482.972 268.898, 481.231 271.341, 480.131 271.930 C 477.619 273.274, 472.930 273.304, 469.491 271.997 C 467.049 271.068, 466.871 270.601, 467.109 265.747 L 467.366 260.500 463.933 260.674 C 461.636 260.791, 460.003 261.583, 459 263.066 C 458.175 264.285, 456.138 266.739, 454.474 268.518 C 451.633 271.555, 450.896 271.796, 442.410 272.468 C 435.344 273.027, 432.583 272.853, 429.750 271.669 C 426.879 270.469, 425.913 269.360, 425.099 266.328 C 424.534 264.222, 423.615 252.464, 423.057 240.198 C 422.498 227.932, 421.694 217.297, 421.271 216.564 C 420.668 215.522, 419.338 215.892, 415.162 218.263 M 575.042 222.845 C 571.030 226.661, 571 226.746, 570.996 234.095 C 570.991 243.753, 574.976 292.289, 575.849 293.211 C 576.219 293.602, 577.642 293.370, 579.011 292.695 C 580.629 291.897, 582.122 289.724, 583.277 286.484 C 584.848 282.079, 584.991 278.943, 584.506 259.500 C 584.204 247.400, 583.680 233.338, 583.342 228.250 C 582.806 220.195, 582.491 219, 580.905 219 C 579.904 219, 577.265 220.730, 575.042 222.845 M 250.358 236.615 L 245.561 242.230 251.030 247.055 L 256.500 251.880 262.267 246.204 L 268.035 240.528 262.767 235.807 C 259.870 233.211, 256.972 231.067, 256.327 231.043 C 255.682 231.019, 252.996 233.527, 250.358 236.615 M 363.210 236.342 C 361.400 236.876, 358.191 238.990, 356.079 241.040 C 350.937 246.030, 348.637 253.019, 349.238 261.834 C 349.488 265.500, 350.035 269.288, 350.453 270.250 C 351.136 271.821, 350.513 271.999, 344.357 271.989 L 337.500 271.978 334.599 264.239 C 332.840 259.547, 330.419 255.220, 328.449 253.250 C 325.880 250.680, 324.373 250, 321.250 250 C 318.469 250, 316.103 250.867, 313.253 252.932 C 308.446 256.414, 304.682 261.137, 302.398 266.554 C 301.452 268.795, 300.702 273.355, 300.660 277.110 C 300.581 284.197, 302.054 287.679, 306.310 290.468 C 307.566 291.290, 312.060 292.502, 316.296 293.161 C 320.533 293.820, 324 294.649, 324 295.005 C 324 295.360, 322.988 296.583, 321.750 297.722 C 317.383 301.739, 309.631 305.959, 301.860 308.546 C 297.537 309.986, 294 311.714, 294 312.386 C 294 314.162, 300.033 319.701, 303.315 320.939 C 309.469 323.259, 317.383 321.456, 322.892 316.479 C 325.030 314.547, 328.754 309.031, 331.552 303.652 L 336.462 294.213 343.481 293.565 C 347.341 293.209, 353.749 291.975, 357.719 290.823 L 364.938 288.727 369.904 290.864 C 376.854 293.853, 386.991 293.803, 393.015 290.750 C 395.644 289.418, 398.279 287.073, 399.477 285 C 401.254 281.926, 401.486 279.857, 401.387 268 C 401.320 259.944, 400.783 253.290, 400.054 251.500 L 398.833 248.500 393.417 254.297 C 390.438 257.485, 388 260.917, 388 261.925 C 388 262.932, 388.675 265.371, 389.500 267.346 C 390.325 269.320, 391 271.136, 391 271.380 C 391 272.355, 383.015 273.093, 379.536 272.441 C 375.508 271.685, 375.548 272.033, 378.547 264 C 380.875 257.766, 380.750 250.384, 378.234 245.490 C 375.880 240.911, 371.417 236.478, 368.500 235.821 C 367.400 235.574, 365.019 235.808, 363.210 236.342 M 273.714 254.039 C 271.122 257.279, 269 260.623, 269 261.470 C 269 262.317, 270.800 267.335, 273 272.622 C 275.200 277.908, 277 283.020, 277 283.981 C 277 286.680, 273.246 290.830, 268.655 293.207 C 265.638 294.769, 262.171 295.464, 256 295.745 C 249.004 296.063, 246.887 295.792, 244.032 294.214 C 242.125 293.160, 239.713 291.157, 238.672 289.763 C 235.651 285.716, 235.410 279.055, 237.994 271.020 L 240.245 264.019 237.880 262.104 L 235.515 260.189 232.214 264.831 C 230.399 267.384, 227.977 272.558, 226.831 276.329 C 225.253 281.526, 224.862 284.917, 225.216 290.343 C 225.773 298.872, 228.337 304.476, 233.721 308.938 C 239.015 313.324, 246.630 315.351, 255.640 314.773 C 261.185 314.417, 264.500 313.536, 269.428 311.110 C 276.751 307.505, 281.711 302.334, 285.734 294.111 C 287.824 289.840, 288.490 286.785, 288.815 279.983 C 289.114 273.742, 288.752 269.645, 287.528 265.402 C 285.949 259.924, 280.815 249.622, 279.153 248.595 C 278.755 248.348, 276.307 250.798, 273.714 254.039 M 360.223 254.557 C 357.071 256.764, 357.270 261.281, 360.635 263.927 C 362.084 265.067, 364.256 266, 365.461 266 C 367.940 266, 372 262.164, 372 259.820 C 372 258.968, 371.067 257.084, 369.927 255.635 C 367.542 252.603, 363.632 252.168, 360.223 254.557 M 313.861 268.980 C 311.846 270.669, 311.720 271.107, 313 271.964 C 314.893 273.233, 324 273.319, 324 272.068 C 324 270.985, 318.659 267, 317.206 267 C 316.665 267, 315.159 267.891, 313.861 268.980 M 387.127 305.459 C 384.307 308.441, 382 311.303, 382 311.819 C 382 312.335, 384.514 314.905, 387.587 317.530 L 393.175 322.304 398.740 316.738 L 404.305 311.173 401.250 307.337 C 399.570 305.226, 396.858 302.721, 395.225 301.769 L 392.255 300.037 387.127 305.459 M 396.246 346.204 C 394.048 352.417, 391.208 360.753, 389.935 364.729 L 387.620 371.958 368.612 372.229 L 349.604 372.500 364.302 383.474 C 372.386 389.509, 379 394.988, 379 395.649 C 379 396.310, 376.750 404.030, 374 412.805 C 371.250 421.580, 369 429.263, 369 429.879 C 369 430.496, 369.400 431, 369.890 431 C 370.379 431, 376.956 426.466, 384.504 420.925 C 392.052 415.384, 398.764 410.644, 399.419 410.393 C 400.075 410.141, 407.238 414.675, 415.337 420.468 C 423.437 426.260, 430.499 431, 431.032 431 C 431.564 431, 431.991 430.663, 431.979 430.250 C 431.967 429.837, 429.519 421.931, 426.537 412.680 C 423.556 403.429, 421.338 395.329, 421.610 394.680 C 421.881 394.031, 428.404 388.883, 436.104 383.239 C 443.805 377.596, 449.830 372.534, 449.493 371.989 C 449.126 371.395, 441.524 371, 430.441 371 C 420.298 371, 412 370.788, 412 370.529 C 412 369.733, 400.978 335.645, 400.598 335.264 C 400.402 335.068, 398.443 339.991, 396.246 346.204 M 42.028 338.500 C 41.337 340.150, 38.872 347.125, 36.551 354 L 32.330 366.500 17.237 367.500 C 8.936 368.050, 1.864 368.786, 1.521 369.135 C 1.178 369.484, 6.134 373.484, 12.534 378.024 C 18.933 382.564, 24.357 386.778, 24.585 387.389 C 24.814 388, 22.806 395.363, 20.122 403.750 C 17.438 412.137, 15.647 419, 16.142 419 C 16.637 419, 22.134 415.175, 28.358 410.500 C 36.632 404.285, 40.472 402, 42.642 402 C 44.779 402, 48.914 404.391, 57.422 410.549 C 63.920 415.251, 69.433 418.900, 69.675 418.659 C 69.916 418.417, 67.977 411.206, 65.366 402.634 C 62.755 394.062, 60.817 386.872, 61.059 386.655 C 61.302 386.439, 67.005 382.220, 73.733 377.281 C 80.462 372.342, 85.674 368.008, 85.317 367.650 C 84.959 367.293, 77.622 367, 69.013 367 L 53.359 367 48.322 351.250 C 43.438 335.979, 43.246 335.591, 42.028 338.500 M 752.418 352.215 L 747.361 367.500 732.029 368 L 716.696 368.500 720.820 372.222 C 723.089 374.270, 728.332 378.450, 732.472 381.512 C 736.613 384.574, 740 387.654, 740 388.357 C 740 389.060, 737.975 396.050, 735.500 403.890 C 733.025 411.730, 731 418.556, 731 419.058 C 731 419.560, 736.836 415.702, 743.969 410.485 C 751.101 405.268, 757.460 401, 758.099 401 C 758.738 401, 761.565 402.665, 764.381 404.700 C 781.277 416.914, 784.290 419, 785.034 419 C 785.487 419, 783.640 412.379, 780.929 404.287 C 778.218 396.196, 776 389.094, 776 388.507 C 776 387.920, 781.716 383.178, 788.703 377.970 L 801.407 368.500 785.496 368.224 C 774.316 368.029, 769.349 367.583, 768.789 366.724 C 768.351 366.051, 766.208 359.867, 764.026 352.982 C 761.845 346.097, 759.478 339.669, 758.767 338.697 C 757.641 337.156, 756.826 338.890, 752.418 352.215 M 526.722 349.611 C 526.298 350.035, 526.235 353.559, 526.582 357.441 C 527.448 367.133, 525.427 382.766, 521.961 393.203 C 515.893 411.470, 503.569 431.618, 490.576 444.516 C 481.735 453.291, 465.019 464.924, 452.500 471.014 C 440.842 476.685, 426.708 479.120, 402 479.714 C 384.792 480.127, 381.275 479.930, 372.077 478.037 C 366.345 476.857, 358.245 474.571, 354.077 472.957 C 349.910 471.342, 342.675 467.716, 338 464.898 C 328.291 459.045, 315.351 449.178, 308.284 442.239 C 303.035 437.084, 288.753 414.910, 283.385 403.578 C 278.025 392.263, 275.894 382.424, 275.249 366 C 274.735 352.892, 274.554 351.788, 273.364 354.500 C 268.504 365.586, 264.018 387.092, 264.006 399.372 C 263.990 415.533, 271.238 446.157, 277.660 457.063 C 285.765 470.829, 294.710 482.822, 302.970 491 C 316.726 504.620, 335.836 516.677, 356.853 524.996 C 365.549 528.438, 369.069 529.264, 378.853 530.158 C 394.871 531.623, 427.714 530.697, 435.500 528.561 C 444.346 526.135, 467.935 514.238, 480.323 505.955 C 486.276 501.975, 493.625 496.453, 496.655 493.685 C 499.684 490.916, 503.927 486.142, 506.083 483.075 C 508.239 480.009, 513.207 473, 517.123 467.500 C 521.039 462, 525.298 455.242, 526.589 452.482 C 529.871 445.461, 535.736 421.417, 537.043 409.629 C 537.851 402.337, 537.834 396.893, 536.978 388.794 C 535.859 378.204, 531.529 358.733, 528.812 352.075 C 528.086 350.296, 527.146 349.188, 526.722 349.611 M 199.104 351.750 C 196.636 353.790, 196.969 350.782, 193.374 403.500 C 190.559 444.774, 190.601 461.943, 193.558 479 C 196.915 498.369, 204.067 516.043, 213.590 528.500 C 216.113 531.800, 220.558 538.145, 223.469 542.600 C 226.944 547.919, 230.776 552.261, 234.631 555.249 C 237.859 557.752, 243.425 562.902, 247 566.695 C 250.919 570.852, 258.067 576.620, 265 581.221 C 271.325 585.418, 281.900 593.546, 288.500 599.283 C 306.854 615.237, 309.983 622.061, 310.338 646.916 C 310.549 661.721, 310.900 662.863, 316.064 665.533 C 321.622 668.407, 345.968 675.133, 359.475 677.525 C 367.161 678.886, 374.054 680, 374.792 680 C 375.904 680, 376.023 672.512, 375.483 636.250 C 375.002 603.933, 374.462 590.932, 373.415 586.500 C 372.636 583.200, 369.930 576.290, 367.403 571.144 C 363.218 562.624, 361.587 560.568, 349.154 548.143 L 335.500 534.499 305.225 518.500 L 274.949 502.500 263.225 490.435 C 256.776 483.799, 246.792 473.272, 241.038 467.041 C 230.010 455.100, 225.501 452.062, 218.750 452.022 C 213.992 451.994, 211 454.794, 211 459.274 C 211 461.308, 212.631 465.381, 215.303 470.024 C 226.232 489.013, 231.911 497.643, 237.713 504.086 C 241.162 507.915, 244.842 512.725, 245.889 514.774 C 248.706 520.282, 255.367 527.428, 262.058 532.121 C 267.802 536.151, 271.338 539.952, 273.977 544.933 C 275.365 547.553, 275.654 547.736, 257.479 534.455 C 250.424 529.300, 246.058 524.610, 237.969 513.500 C 235.566 510.200, 231.472 505.241, 228.872 502.479 C 226.064 499.498, 223.308 495.232, 222.087 491.979 C 220.955 488.966, 217.506 483.194, 214.422 479.152 C 211.338 475.111, 207.966 469.936, 206.929 467.652 C 205.892 465.369, 205.034 461.595, 205.022 459.266 C 205.005 456.037, 205.655 454.299, 207.759 451.944 C 209.379 450.131, 212.786 448.084, 216.009 446.986 L 221.500 445.117 221.181 427.808 C 220.609 396.747, 219.116 369.626, 217.696 364.500 C 215.861 357.875, 213.508 353.469, 210.783 351.561 C 207.813 349.480, 201.731 349.579, 199.104 351.750 M 591.206 351.048 C 589.944 351.554, 588.200 353.663, 587.331 355.734 C 586.462 357.805, 584.922 363.550, 583.910 368.500 C 582.496 375.420, 581.882 384.895, 581.257 409.500 C 580.809 427.100, 580.605 442.429, 580.803 443.564 C 581.062 445.055, 582.417 445.964, 585.681 446.837 C 588.166 447.502, 591.555 449.401, 593.211 451.057 C 596.075 453.922, 596.203 454.401, 595.835 460.919 C 595.467 467.423, 595.117 468.267, 588.892 477.635 C 585.286 483.061, 580.260 490.875, 577.723 495 C 575.186 499.125, 568.380 508.350, 562.599 515.500 C 553.552 526.689, 550.306 529.845, 539.294 538.156 C 532.257 543.467, 526.344 547.660, 526.152 547.475 C 525.961 547.290, 528.304 544.006, 531.358 540.178 C 534.412 536.350, 538.619 532.200, 540.706 530.955 C 546.757 527.346, 552.881 520.955, 556.163 514.823 C 557.834 511.700, 561.543 506.300, 564.404 502.823 C 574.999 489.947, 589.021 467.262, 589.752 461.814 C 590.514 456.131, 589.421 453.342, 585.957 452.135 C 584.276 451.549, 581.461 451.338, 579.701 451.666 C 573.886 452.750, 569.087 456.266, 562.272 464.433 C 550.295 478.788, 530.842 498.911, 525.604 502.365 C 522.797 504.216, 507.907 512.429, 492.515 520.615 L 464.531 535.500 453.161 547 C 446.908 553.325, 440.548 560.075, 439.027 562 C 435.308 566.706, 431.510 574.405, 429.633 581.043 C 427.595 588.246, 426 620.089, 426 653.567 L 426 680.024 430.250 679.421 C 450.889 676.497, 463.387 673.650, 476.272 668.936 C 490.274 663.815, 490.282 663.800, 491.025 643.638 C 491.569 628.893, 491.855 626.988, 494.337 621.570 C 495.832 618.308, 498.638 613.708, 500.573 611.346 C 505.460 605.382, 524.029 589.599, 535.189 581.925 C 540.310 578.404, 548.831 571.243, 554.124 566.011 C 559.416 560.780, 566.341 554.264, 569.512 551.531 C 572.682 548.798, 577.834 542.723, 580.961 538.031 C 584.087 533.339, 588.696 526.575, 591.202 523 C 596.057 516.074, 601.325 506.165, 603.639 499.605 C 605.808 493.458, 610.035 467.854, 610.655 457.111 C 610.982 451.432, 610.142 430.115, 608.599 405 C 607.164 381.625, 605.734 360.555, 605.423 358.178 C 604.686 352.559, 602.090 349.982, 597.250 350.063 C 595.188 350.098, 592.468 350.541, 591.206 351.048 M 224.031 407.215 C 224.072 426.411, 225.544 445.746, 227.108 447.630 C 227.800 448.464, 230.067 450.014, 232.146 451.074 C 234.224 452.135, 238.417 455.032, 241.463 457.513 C 244.508 459.993, 247 461.577, 247 461.032 C 247 460.487, 245.198 452.363, 242.995 442.979 C 240.792 433.594, 238.294 421.589, 237.443 416.301 C 236.592 411.012, 235.267 405.181, 234.498 403.342 C 233.107 400.012, 229.080 395.651, 225.750 393.867 C 224.121 392.994, 224.002 393.914, 224.031 407.215 M 572.655 396.547 C 570.646 398.497, 568.354 401.348, 567.561 402.882 C 566.768 404.416, 565.388 409.908, 564.495 415.086 C 563.602 420.264, 561.086 432.548, 558.904 442.385 C 556.722 452.222, 555.064 460.383, 555.219 460.520 C 555.706 460.951, 573.463 447.866, 574.244 446.501 C 575.312 444.632, 577.973 413.180, 577.988 402.250 C 577.994 397.163, 577.619 393, 577.153 393 C 576.688 393, 574.663 394.596, 572.655 396.547 M 738.148 456.899 C 736.065 463.854, 736.566 465.525, 742.134 470.195 C 744.958 472.563, 748.648 475.681, 750.335 477.124 L 753.402 479.748 748.451 480.781 C 745.728 481.348, 740.967 482.326, 737.871 482.952 L 732.242 484.092 731.052 490.143 C 730.397 493.471, 730.005 496.316, 730.181 496.465 C 730.356 496.613, 737.250 495.236, 745.500 493.405 C 753.750 491.573, 762.098 490.058, 764.051 490.037 C 766.004 490.017, 771.545 490.862, 776.365 491.915 C 782.776 493.316, 785.238 493.517, 785.537 492.665 C 786.552 489.777, 787.834 482.540, 787.443 481.907 C 787.205 481.522, 784.020 480.686, 780.366 480.050 C 776.712 479.414, 771.634 477.835, 769.081 476.541 C 766.528 475.247, 759.257 469.729, 752.922 464.278 C 746.587 458.828, 740.930 454.075, 740.351 453.717 C 739.736 453.337, 738.819 454.662, 738.148 456.899 M 12 469.451 C 12 469.699, 12.475 472.118, 13.057 474.828 L 14.113 479.754 20.026 480.423 C 23.278 480.791, 26.248 481.593, 26.627 482.205 C 27.429 483.503, 29.913 494.694, 29.965 497.241 C 29.987 498.330, 27.912 500.162, 24.426 502.129 C 19.865 504.703, 18.944 505.658, 19.358 507.387 C 19.636 508.549, 20.169 511.188, 20.543 513.250 C 20.917 515.313, 21.631 517, 22.130 517 C 22.807 517, 67.810 490.966, 69.863 489.387 C 70.175 489.147, 68.735 481.864, 67.393 476.899 C 67.077 475.732, 64.326 474.842, 57.230 473.611 C 41.596 470.900, 26.015 469.041, 18.750 469.020 C 15.037 469.009, 12 469.203, 12 469.451 M 38.358 483.750 C 38.629 484.712, 39.145 486.962, 39.505 488.750 C 39.865 490.538, 40.591 492, 41.119 492 C 42.457 492, 49.893 488.168, 53.500 485.619 L 56.500 483.500 52 482.824 C 49.525 482.452, 45.332 482.115, 42.683 482.074 C 38.555 482.011, 37.936 482.251, 38.358 483.750 M 734.615 503.496 C 728.915 505.493, 723.219 511.524, 721.470 517.414 C 720.661 520.136, 720 523.776, 720 525.503 C 720 530.940, 723.096 538.096, 727.241 542.241 C 729.417 544.417, 734.051 547.533, 737.538 549.165 C 750.130 555.057, 761.273 553.767, 768.856 545.540 C 772.866 541.190, 776 533.495, 776 528 C 776 526.550, 775.320 523.074, 774.489 520.276 C 773.479 516.875, 771.810 514.163, 769.454 512.094 C 767.516 510.392, 765.569 509, 765.128 509 C 764.686 509, 763.517 511.376, 762.530 514.280 C 760.753 519.508, 760.757 519.604, 762.954 523.911 C 765.648 529.191, 765.130 533.591, 761.401 537.090 C 759.204 539.152, 757.871 539.493, 752.167 539.454 C 747.343 539.421, 744.360 538.811, 741.376 537.248 C 739.107 536.060, 736.070 533.683, 734.625 531.967 C 729.513 525.891, 730.019 520.182, 736.013 516.309 C 741.336 512.870, 742.745 511.171, 743.467 507.326 C 743.831 505.384, 743.987 503.680, 743.814 503.538 C 743.642 503.397, 742.375 503.024, 741 502.708 C 739.625 502.393, 736.752 502.748, 734.615 503.496 M 62.169 511.485 C 57.189 513.040, 54.437 515.254, 52.264 519.457 C 51.035 521.833, 50.864 524.451, 51.398 532.715 C 51.828 539.370, 51.686 543.717, 50.997 545.006 C 50.248 546.405, 48.903 547, 46.488 547 C 43.949 547, 42.629 546.364, 41.458 544.577 C 39.331 541.329, 39.326 536.940, 41.446 532.472 C 43.090 529.008, 43.094 528.535, 41.513 524.396 C 40.382 521.434, 39.243 520, 38.021 520 C 37.023 520, 34.841 521.556, 33.171 523.458 C 29.756 527.348, 28.390 533.447, 29.411 540.255 C 30.230 545.718, 35.080 554.209, 38.959 556.971 C 40.621 558.154, 43.464 559.363, 45.277 559.657 C 49.745 560.383, 56.265 558.489, 59.936 555.401 C 61.600 554, 63.406 551.199, 63.949 549.177 C 64.583 546.812, 64.603 542.294, 64.005 536.517 C 63.239 529.115, 63.336 527.136, 64.561 525.267 C 65.423 523.951, 67.055 523, 68.450 523 C 71.368 523, 75 527.287, 75 530.731 C 75 532.084, 74.244 534.471, 73.321 536.035 C 71.738 538.713, 71.747 539.112, 73.472 542.939 C 74.480 545.172, 75.903 547, 76.636 547 C 77.369 547, 79.413 545.709, 81.178 544.132 C 84.063 541.555, 84.432 540.587, 84.813 534.588 C 85.113 529.892, 84.743 526.615, 83.567 523.535 C 81.695 518.635, 74.105 511, 71.104 511 C 70.037 511, 68.564 510.805, 67.832 510.566 C 67.099 510.328, 64.551 510.741, 62.169 511.485 M 710.212 548.717 C 709.658 550.248, 708.892 552.269, 708.511 553.209 C 707.940 554.616, 710.223 556.118, 721.409 561.692 C 728.884 565.418, 735 568.811, 735 569.233 C 735 569.655, 727.821 570, 719.047 570 C 708.791 570, 702.156 570.427, 700.467 571.197 C 699.022 571.855, 696.976 574.088, 695.920 576.157 C 694.864 578.227, 694 580.344, 694 580.862 C 694 581.379, 701.987 586.189, 711.750 591.551 C 721.513 596.912, 731.840 602.611, 734.699 604.216 L 739.899 607.134 742.517 601.967 C 743.956 599.126, 744.992 596.674, 744.817 596.518 C 744.643 596.362, 738.228 592.919, 730.562 588.867 L 716.623 581.500 736.122 581.229 L 755.620 580.959 757.813 575.768 C 759.592 571.558, 759.765 570.337, 758.729 569.301 C 755.407 565.979, 721.301 548.884, 713.359 546.561 C 711.654 546.062, 711.014 546.501, 710.212 548.717 M 79.450 555.407 C 75.298 557.215, 71.222 562.298, 70.397 566.698 C 69.976 568.939, 70.351 573.060, 71.370 577.419 C 72.281 581.314, 73.020 585.974, 73.013 587.775 C 73.003 590.405, 72.470 591.251, 70.305 592.074 C 68.136 592.899, 67.110 592.730, 65.055 591.210 C 63.650 590.170, 61.876 588.046, 61.114 586.490 C 59.906 584.023, 59.946 583.053, 61.424 578.941 C 62.918 574.786, 62.953 573.823, 61.715 570.862 C 60.942 569.013, 59.649 566.952, 58.842 566.283 C 57.647 565.292, 56.794 565.596, 54.258 567.911 C 50.142 571.671, 48.699 577.141, 50.006 584.034 C 51.226 590.465, 54.707 596.657, 59.434 600.808 C 64.368 605.140, 68.916 606.214, 74.855 604.450 C 82.025 602.321, 86 597.229, 86 590.173 C 86 587.995, 85.280 582.731, 84.400 578.475 C 83.200 572.673, 83.069 570.143, 83.878 568.368 C 85.986 563.743, 93.066 566.431, 94.571 572.428 C 94.931 573.862, 94.548 576.199, 93.662 577.975 C 92.248 580.811, 92.288 581.402, 94.196 585.772 C 95.331 588.372, 96.428 590.689, 96.634 590.921 C 97.260 591.624, 102.099 586.674, 103.595 583.800 C 105.388 580.354, 105.404 571.902, 103.625 567.645 C 101.855 563.409, 96.486 557.303, 92.901 555.449 C 89.443 553.661, 83.502 553.642, 79.450 555.407 M 104.344 597.044 C 94.941 598.898, 85.754 605.840, 81.557 614.261 C 79.722 617.944, 79.006 620.961, 79.022 624.946 C 79.035 628.167, 79.820 632.208, 80.890 634.565 C 83.416 640.126, 88.495 645.689, 93.405 648.272 C 99.001 651.216, 108.744 651.230, 115.176 648.305 C 122.162 645.127, 128.314 638.920, 131.489 631.846 C 133.760 626.785, 134.153 624.770, 133.708 620.461 C 133.411 617.581, 132.405 613.712, 131.474 611.863 C 130.542 610.013, 128.142 606.774, 126.140 604.665 C 119.825 598.012, 112.472 595.441, 104.344 597.044 M 679.418 603.424 C 676.988 605.960, 675 608.620, 675 609.334 C 675 611.403, 704.750 654.918, 706.202 654.973 C 706.959 655.002, 713 646.569, 713 645.483 C 713 645.122, 711.592 642.867, 709.872 640.471 L 706.743 636.114 709.299 631.807 C 710.705 629.438, 713.131 625.994, 714.690 624.153 L 717.525 620.806 723.337 622.496 C 726.533 623.425, 729.267 624.031, 729.412 623.843 C 731.545 621.073, 736.107 613.787, 735.846 613.565 C 734.977 612.828, 720.983 608.719, 705 604.510 C 695.375 601.975, 686.676 599.656, 685.668 599.357 C 684.387 598.977, 682.508 600.199, 679.418 603.424 M 102.227 611.116 C 94.839 614.774, 89.313 623.484, 90.739 629.226 C 92.335 635.651, 98.907 639.869, 105.323 638.585 C 109.832 637.684, 115.544 633.612, 119.008 628.831 C 121.367 625.574, 122 623.658, 122 619.773 C 122 615.661, 121.517 614.363, 119.077 611.923 C 116.653 609.499, 115.329 609, 111.327 609.001 C 108.428 609.001, 104.794 609.846, 102.227 611.116 M 689.616 613.250 C 691.313 616.139, 699.353 626, 700.012 626 C 701.012 626, 706.406 618.073, 705.811 617.478 C 705.195 616.862, 690.953 612, 689.766 612 C 689.280 612, 689.212 612.563, 689.616 613.250 M 653.085 634.044 C 645.208 642.873, 638.929 650.222, 639.131 650.376 C 639.334 650.531, 641.218 651.936, 643.318 653.499 L 647.135 656.341 652.237 651.239 L 657.338 646.138 672.575 660.069 C 680.956 667.731, 688.192 673.958, 688.656 673.906 C 689.120 673.854, 691.166 671.916, 693.202 669.599 L 696.904 665.386 681.026 650.993 L 665.149 636.599 670.033 630.962 L 674.917 625.325 671.162 621.658 L 667.407 617.992 653.085 634.044 M 139.324 641.439 C 133.306 643.321, 128.486 646.564, 124.621 651.331 C 116.108 661.831, 114.574 670.521, 119.466 680.521 C 122.404 686.526, 127.502 691.020, 133.691 693.063 C 138.271 694.575, 147.098 693.821, 150.436 691.634 C 152.850 690.052, 152.940 689.752, 151.583 687.815 C 148.856 683.922, 144.788 682.014, 139.205 682.007 C 134.921 682.001, 133.440 681.531, 131.455 679.545 C 129.523 677.614, 129 676.057, 129 672.241 C 129 668.575, 129.729 666.242, 131.987 662.682 C 135.568 657.035, 142.996 652, 147.745 652 C 155.214 652, 159.788 657.283, 158.458 664.374 C 158.052 666.535, 158.173 668, 158.756 668 C 159.294 668, 160.963 669.856, 162.464 672.125 C 165.152 676.186, 165.224 676.221, 167.105 674.340 C 168.156 673.289, 169.544 669.911, 170.189 666.834 C 171.210 661.967, 171.124 660.613, 169.527 656.432 C 166.110 647.485, 155.434 639.874, 146.572 640.067 C 144.882 640.104, 141.621 640.721, 139.324 641.439 M 622.786 663.753 L 618.179 667.739 631.183 682.620 C 638.335 690.804, 646.471 699.841, 649.262 702.702 L 654.337 707.904 658.918 703.981 C 661.438 701.823, 667.314 696.511, 671.976 692.175 L 680.452 684.292 677.476 680.718 C 675.839 678.753, 674.124 677.112, 673.665 677.072 C 673.206 677.032, 669.156 680.148, 664.665 683.995 C 660.174 687.843, 656.181 690.993, 655.791 690.995 C 655.156 691, 634.085 668.035, 629.308 662.133 L 627.392 659.766 622.786 663.753 M 167.410 685.230 C 159.210 694.706, 151.485 703.662, 150.244 705.131 L 147.988 707.803 152.756 711.796 L 157.525 715.788 174.909 695.206 L 192.293 674.623 188.396 671.326 C 186.253 669.513, 184.010 668.023, 183.410 668.015 C 182.811 668.007, 175.611 675.753, 167.410 685.230 M 608.068 676.066 C 605.741 677.752, 604.045 679.676, 604.301 680.342 C 604.557 681.008, 608.407 686.810, 612.858 693.234 C 622.234 706.767, 625 711.635, 625 714.600 C 625 717.480, 621.717 721.460, 618.109 722.955 C 615.729 723.941, 614.614 723.918, 612.417 722.840 C 610.914 722.103, 606.806 717.450, 603.288 712.500 C 599.770 707.550, 594.883 700.672, 592.427 697.215 L 587.961 690.931 583.410 694.062 C 580.908 695.784, 579.066 697.730, 579.318 698.387 C 579.571 699.045, 584.586 706.628, 590.465 715.239 C 599.482 728.449, 601.815 731.216, 605.392 732.948 C 613.288 736.770, 622.687 735.173, 629.554 728.844 C 631.943 726.641, 634.441 723.195, 635.104 721.185 C 636.824 715.975, 636.493 709.904, 634.210 704.742 C 632.173 700.138, 613.968 673.028, 612.900 673.010 C 612.570 673.005, 610.396 674.379, 608.068 676.066 M 200.839 691.750 C 178.311 709.007, 164 720.321, 164.002 720.873 C 164.004 721.590, 172.335 727, 173.437 727 C 173.836 727, 176.134 725.385, 178.542 723.412 L 182.920 719.824 189.942 724.162 C 193.804 726.548, 197.167 729.021, 197.416 729.659 C 197.664 730.296, 197.254 733.141, 196.505 735.980 C 195.250 740.740, 195.290 741.290, 197.018 743.018 C 199.269 745.269, 204.991 748.342, 205.669 747.664 C 205.935 747.399, 209.053 735.603, 212.599 721.451 C 216.145 707.299, 218.788 694.908, 218.473 693.915 C 218.158 692.922, 215.713 690.764, 213.039 689.119 L 208.178 686.128 200.839 691.750 M 225.513 703.622 C 224.681 705.614, 224 707.635, 224 708.114 C 224 708.592, 226.475 710.380, 229.500 712.087 C 232.525 713.794, 235 715.310, 235 715.456 C 235 715.602, 230.755 724.446, 225.566 735.111 L 216.132 754.500 221.297 757.134 L 226.461 759.767 236.316 740.634 C 241.736 730.110, 246.256 721.414, 246.360 721.309 C 246.463 721.204, 248.386 721.941, 250.632 722.947 C 258.609 726.518, 258.700 726.509, 261.042 721.917 C 262.773 718.525, 262.924 717.566, 261.840 716.874 C 258.370 714.659, 229.069 700, 228.113 700 C 227.515 700, 226.346 701.630, 225.513 703.622 M 198.065 706.882 L 191.629 712.698 196.360 715.471 C 198.962 716.995, 201.246 718.076, 201.436 717.871 C 201.843 717.435, 206 702.692, 206 701.686 C 206 700.159, 204.200 701.337, 198.065 706.882 M 560.173 706.905 C 553.626 709.166, 547.331 715.057, 545.940 720.224 C 544.487 725.617, 546.207 731.097, 550.549 734.909 C 552.485 736.609, 554.841 738.100, 555.785 738.222 C 556.728 738.345, 562.844 738.457, 569.375 738.472 C 579.431 738.496, 581.416 738.760, 582.337 740.197 C 584.072 742.909, 581.958 747.232, 577.802 749.469 C 574.293 751.359, 573.997 751.369, 570.538 749.719 C 568.555 748.774, 565.710 748.002, 564.216 748.005 C 562.722 748.008, 560.150 749.106, 558.500 750.445 L 555.500 752.881 559.178 756.602 C 562.344 759.805, 563.627 760.387, 568.382 760.782 C 571.421 761.034, 575.451 760.950, 577.338 760.596 C 585.564 759.053, 595.021 749.137, 594.978 742.100 C 594.946 736.893, 591.646 730.377, 587.808 727.944 C 584.754 726.008, 583.551 725.893, 572.129 726.446 C 563.502 726.863, 559.341 726.698, 558.379 725.900 C 556.167 724.064, 556.766 720.329, 559.635 718.073 C 562.583 715.753, 565.868 715.461, 570.432 717.112 C 573.057 718.061, 574.065 717.894, 577.317 715.975 L 581.128 713.727 577.858 710.354 C 575.025 707.430, 569.727 704.951, 566.500 705.038 C 565.950 705.053, 563.103 705.893, 560.173 706.905 M 266.150 722.803 C 262.795 729.555, 246.742 768.076, 247.124 768.457 C 247.331 768.664, 249.885 769.772, 252.799 770.921 L 258.098 773.009 259.452 769.755 C 264.368 757.938, 277.924 723.599, 277.733 723.446 C 277.605 723.343, 275.359 722.325, 272.743 721.183 L 267.986 719.106 266.150 722.803 M 530 722.013 C 527.525 723.015, 525.576 724.210, 525.668 724.668 C 525.760 725.126, 527.908 731.546, 530.439 738.936 C 532.971 746.325, 534.921 752.715, 534.771 753.134 C 534.622 753.553, 528.722 748.440, 521.659 741.772 L 508.819 729.647 503.357 731.504 C 500.353 732.525, 497.667 733.729, 497.389 734.180 C 497.111 734.630, 500.343 745.911, 504.573 759.249 C 508.803 772.587, 512.427 783.685, 512.626 783.911 C 513.033 784.373, 524 782.053, 524 781.504 C 524 781.310, 521.520 774.073, 518.488 765.421 C 515.456 756.769, 513.222 749.445, 513.523 749.144 C 513.823 748.843, 520.102 754.617, 527.475 761.975 L 540.880 775.353 546.940 773.518 C 550.273 772.509, 553 771.148, 553 770.493 C 553 768.914, 536.045 721.688, 535.176 720.845 C 534.804 720.484, 532.475 721.010, 530 722.013 M 290.885 732.380 C 288.897 733.090, 285.938 734.620, 284.310 735.779 C 280.287 738.644, 276.159 744.821, 274.431 750.562 C 272.724 756.236, 272.587 764.974, 274.121 770.497 C 275.731 776.299, 282.239 782.400, 288.939 784.389 C 291.922 785.275, 296.194 785.996, 298.432 785.990 C 300.669 785.985, 304.833 784.894, 307.685 783.566 C 311.275 781.895, 313.948 779.668, 316.373 776.326 C 320.256 770.977, 323 762.612, 323 756.127 C 323 753.794, 322.475 749.799, 321.832 747.249 C 320.249 740.959, 314.235 735.018, 307.135 732.729 C 300.834 730.698, 295.888 730.592, 290.885 732.380 M 466.152 739.548 C 463.210 740.352, 459.640 741.925, 458.218 743.043 C 454.651 745.849, 451.417 750.836, 450.109 755.544 C 448.565 761.108, 448.735 770.997, 450.460 775.885 C 451.262 778.160, 453.278 781.998, 454.940 784.412 C 458.351 789.370, 464.756 792.993, 471.444 793.747 C 473.903 794.024, 478.129 793.523, 481.430 792.563 C 485.562 791.362, 488.345 789.707, 491.443 786.610 C 496.838 781.214, 499.511 773.896, 498.515 767.250 C 497.231 758.688, 494.107 750.485, 490.547 746.326 C 484.813 739.627, 475.418 737.017, 466.152 739.548 M 332.503 742.250 C 332.208 743.487, 330.448 755.075, 328.591 768 C 326.734 780.925, 325.504 791.785, 325.857 792.133 C 326.211 792.481, 328.623 793.069, 331.217 793.439 C 336.736 794.227, 336.136 795.498, 338.500 778 C 340.444 763.612, 340.913 761.488, 341.905 762.605 C 342.341 763.097, 345.297 770.821, 348.474 779.768 C 351.650 788.715, 354.673 796.298, 355.192 796.619 C 355.711 796.940, 358.805 797.444, 362.068 797.740 L 368 798.278 368.013 795.389 C 368.021 793.800, 369.106 784.850, 370.426 775.500 C 371.745 766.150, 373.141 755.462, 373.529 751.750 L 374.233 745 368.781 745 L 363.329 745 361.093 760.738 C 359.863 769.394, 358.751 776.582, 358.622 776.712 C 358.493 776.841, 356.438 771.446, 354.055 764.723 C 346.206 742.576, 346.115 742.373, 343.439 741.154 C 342.046 740.519, 339.136 740, 336.972 740 C 333.718 740, 332.946 740.389, 332.503 742.250 M 292.543 744.366 C 289.191 747.719, 286.064 754.252, 285.363 759.372 C 284.658 764.515, 286.309 770.278, 289.282 773.048 C 290.774 774.438, 292.800 775, 296.320 775 C 300.691 775, 301.653 774.587, 304.621 771.440 C 308.757 767.055, 311.436 758.562, 310.712 752.136 C 310.320 748.656, 309.453 746.901, 307.083 744.782 C 304.648 742.607, 302.980 742, 299.439 742 C 296.009 742, 294.335 742.574, 292.543 744.366 M 411.227 747.116 C 408.878 748.280, 405.661 750.801, 404.080 752.719 C 400.800 756.699, 398 765.577, 398 772 C 398 774.403, 398.766 779.098, 399.702 782.434 C 401.012 787.104, 402.462 789.558, 406.008 793.103 C 409.525 796.620, 411.855 798.006, 415.876 798.970 C 418.788 799.669, 422.938 799.946, 425.162 799.590 C 430.106 798.800, 435.778 795.971, 438.683 792.847 C 441.245 790.094, 443 785.860, 443 782.435 C 443 780.157, 442.654 780, 437.621 780 C 432.572 780, 432.166 780.186, 430.984 783.040 C 430.291 784.712, 428.786 786.737, 427.640 787.540 C 426.493 788.343, 423.820 789, 421.701 789 C 418.818 789, 417.144 788.298, 415.064 786.217 C 412.958 784.112, 411.991 781.770, 411.089 776.590 C 409.345 766.576, 411.236 758.964, 416.091 756.453 C 417.636 755.654, 420.318 755, 422.050 755 C 424.317 755, 426.182 755.982, 428.700 758.500 C 431.748 761.548, 432.833 762, 437.100 762 C 442.432 762, 442.852 761.378, 440.933 756.315 C 438.294 749.348, 430.907 745.056, 421.500 745.023 C 417.371 745.008, 414.168 745.661, 411.227 747.116 M 466.225 751.004 C 464.424 752.102, 462.511 754.155, 461.975 755.566 C 461.439 756.976, 461 760.816, 461 764.098 C 461 768.470, 461.664 771.376, 463.482 774.964 C 464.846 777.657, 466.972 780.567, 468.204 781.430 C 471.121 783.473, 477.926 783.441, 480.883 781.369 C 483.730 779.376, 486 774.209, 486 769.726 C 486 767.890, 485.061 763.608, 483.914 760.210 C 480.423 749.873, 473.764 746.408, 466.225 751.004" stroke="none" fill="#207280" fill-rule="evenodd"/>
</svg>
